<svg xmlns="http://www.w3.org/2000/svg" viewBox="0 0 1440 320"><path fill="#48ceff" fill-opacity="0.15" d="M0,160L30,170.7C60,181,120,203,180,197.3C240,192,300,160,360,149.3C420,139,480,149,540,160C600,171,660,181,720,160C780,139,840,85,900,101.3C960,117,1020,203,1080,234.7C1140,267,1200,245,1260,234.7C1320,224,1380,224,1410,224L1440,224L1440,320L1410,320C1380,320,1320,320,1260,320C1200,320,1140,320,1080,320C1020,320,960,320,900,320C840,320,780,320,720,320C660,320,600,320,540,320C480,320,420,320,360,320C300,320,240,320,180,320C120,320,60,320,30,320L0,320Z"></path></svg>